<svg width="63.74" height="14.94" viewBox="0 0 63.74 14.94" xmlns="http://www.w3.org/2000/svg"><g id="svgGroup" stroke-linecap="round" fill-rule="evenodd" font-size="9pt" stroke="#000" stroke-width="0" fill="#274E13" style="stroke:#000;stroke-width:0;fill:#274E13"><path d="M 50.28 3.52 L 54.72 3.52 L 54.72 14.8 L 50.28 14.8 L 50.28 13.08 Q 49.76 13.88 48.89 14.38 A 3.691 3.691 0 0 1 47.674 14.81 A 4.971 4.971 0 0 1 46.82 14.88 A 4.642 4.642 0 0 1 45.51 14.705 A 3.473 3.473 0 0 1 43.79 13.58 Q 42.796 12.395 42.709 10.446 A 8.561 8.561 0 0 1 42.7 10.06 L 42.7 3.52 L 47.12 3.52 L 47.12 9.5 A 2.406 2.406 0 0 0 47.176 10.032 Q 47.261 10.411 47.48 10.688 A 1.492 1.492 0 0 0 47.55 10.77 A 1.423 1.423 0 0 0 48.461 11.226 A 1.996 1.996 0 0 0 48.7 11.24 A 1.876 1.876 0 0 0 49.191 11.179 A 1.35 1.35 0 0 0 49.86 10.77 Q 50.264 10.318 50.279 9.559 A 2.978 2.978 0 0 0 50.28 9.5 L 50.28 3.52 Z M 20.9 13.26 L 20.9 14.8 L 16.46 14.8 L 16.46 0 L 20.9 0 L 20.9 5.06 Q 21.32 4.28 22.11 3.83 A 3.346 3.346 0 0 1 23.157 3.454 A 4.565 4.565 0 0 1 24 3.38 Q 25.32 3.38 26.38 4.07 A 4.401 4.401 0 0 1 27.694 5.418 A 5.657 5.657 0 0 1 28.05 6.07 Q 28.66 7.38 28.66 9.16 Q 28.66 10.94 28.05 12.25 Q 27.44 13.56 26.38 14.25 Q 25.32 14.94 24 14.94 A 4.512 4.512 0 0 1 23.097 14.854 A 3.321 3.321 0 0 1 22.11 14.49 Q 21.32 14.04 20.9 13.26 Z M 10.78 14.8 L 10.08 12.66 L 5.36 12.66 L 4.66 14.8 L 0 14.8 L 5.18 0.64 L 10.3 0.64 L 15.46 14.8 L 10.78 14.8 Z M 62.68 11.02 L 63.74 11.02 L 63.74 14.8 L 62.06 14.8 Q 57.42 14.8 57.42 10.18 L 57.42 7.22 L 56.02 7.22 L 56.02 3.52 L 57.42 3.52 L 57.42 0.8 L 61.86 0.8 L 61.86 3.52 L 63.7 3.52 L 63.7 7.22 L 61.86 7.22 L 61.86 10.26 A 1.333 1.333 0 0 0 61.875 10.468 Q 61.892 10.576 61.929 10.662 A 0.527 0.527 0 0 0 62.05 10.84 A 0.552 0.552 0 0 0 62.232 10.951 Q 62.408 11.02 62.68 11.02 Z M 33.568 14.706 A 7.1 7.1 0 0 0 35.42 14.94 A 7.755 7.755 0 0 0 36.147 14.907 A 6.346 6.346 0 0 0 38.48 14.24 Q 39.84 13.54 40.61 12.23 A 5.38 5.38 0 0 0 41.199 10.759 A 6.788 6.788 0 0 0 41.38 9.16 A 7.181 7.181 0 0 0 41.305 8.104 A 5.539 5.539 0 0 0 40.61 6.09 Q 39.84 4.78 38.48 4.08 A 6.091 6.091 0 0 0 37.272 3.614 A 7.1 7.1 0 0 0 35.42 3.38 A 7.755 7.755 0 0 0 34.693 3.413 A 6.346 6.346 0 0 0 32.36 4.08 Q 31 4.78 30.23 6.09 A 5.38 5.38 0 0 0 29.641 7.561 A 6.788 6.788 0 0 0 29.46 9.16 A 7.181 7.181 0 0 0 29.535 10.216 A 5.539 5.539 0 0 0 30.23 12.23 Q 31 13.54 32.36 14.24 A 6.091 6.091 0 0 0 33.568 14.706 Z M 24.16 9.16 Q 24.16 8.26 23.7 7.76 Q 23.24 7.26 22.52 7.26 A 1.689 1.689 0 0 0 21.921 7.362 A 1.501 1.501 0 0 0 21.34 7.76 A 1.643 1.643 0 0 0 20.974 8.427 Q 20.904 8.671 20.886 8.961 A 3.267 3.267 0 0 0 20.88 9.16 Q 20.88 10.06 21.34 10.56 Q 21.8 11.06 22.52 11.06 A 1.689 1.689 0 0 0 23.119 10.958 A 1.501 1.501 0 0 0 23.7 10.56 A 1.643 1.643 0 0 0 24.066 9.893 Q 24.136 9.649 24.154 9.359 A 3.267 3.267 0 0 0 24.16 9.16 Z M 35.42 11.1 A 1.302 1.302 0 0 0 36.393 10.684 A 1.695 1.695 0 0 0 36.46 10.61 Q 36.783 10.233 36.858 9.578 A 3.702 3.702 0 0 0 36.88 9.16 A 3.505 3.505 0 0 0 36.841 8.619 Q 36.752 8.051 36.46 7.71 Q 36.04 7.22 35.42 7.22 A 1.302 1.302 0 0 0 34.447 7.636 A 1.695 1.695 0 0 0 34.38 7.71 Q 34.057 8.087 33.982 8.742 A 3.702 3.702 0 0 0 33.96 9.16 A 3.589 3.589 0 0 0 33.998 9.701 Q 34.085 10.269 34.37 10.61 A 1.349 1.349 0 0 0 34.862 10.989 A 1.369 1.369 0 0 0 35.42 11.1 Z M 6.44 9.32 L 9 9.32 L 7.72 5.38 L 6.44 9.32 Z" vector-effect="non-scaling-stroke"/></g></svg>