<svg width="83.64" height="14.44" viewBox="0 0 83.64 14.44" xmlns="http://www.w3.org/2000/svg"><g id="svgGroup" stroke-linecap="round" fill-rule="evenodd" font-size="9pt" stroke="#000" stroke-width="0" fill="#274E13" style="stroke:#000;stroke-width:0;fill:#274E13"><path d="M 13.86 5.58 L 9.18 5.58 A 2.696 2.696 0 0 0 8.712 4.866 A 2.4 2.4 0 0 0 8.27 4.49 A 2.365 2.365 0 0 0 7.041 4.103 A 2.885 2.885 0 0 0 6.92 4.1 Q 5.8 4.1 5.15 4.94 A 2.917 2.917 0 0 0 4.653 5.961 Q 4.5 6.512 4.5 7.2 Q 4.5 8.298 4.889 9.049 A 2.686 2.686 0 0 0 5.15 9.46 A 2.079 2.079 0 0 0 6.664 10.289 A 2.781 2.781 0 0 0 6.92 10.3 A 2.519 2.519 0 0 0 7.778 10.157 A 2.3 2.3 0 0 0 8.27 9.91 A 2.484 2.484 0 0 0 9.095 8.992 A 3.039 3.039 0 0 0 9.18 8.82 L 13.86 8.82 A 7.483 7.483 0 0 1 13.247 10.756 A 6.577 6.577 0 0 1 12.65 11.76 Q 11.74 13.02 10.29 13.71 A 7.087 7.087 0 0 1 8.112 14.333 A 8.926 8.926 0 0 1 7 14.4 Q 4.86 14.4 3.28 13.49 Q 1.7 12.58 0.85 10.94 A 7.571 7.571 0 0 1 0.067 8.345 A 9.502 9.502 0 0 1 0 7.2 Q 0 5.1 0.85 3.46 Q 1.7 1.82 3.28 0.91 A 6.734 6.734 0 0 1 5.595 0.108 A 8.855 8.855 0 0 1 7 0 A 8.406 8.406 0 0 1 8.845 0.195 A 6.836 6.836 0 0 1 10.29 0.69 Q 11.74 1.38 12.65 2.64 A 6.867 6.867 0 0 1 13.726 4.965 A 8.229 8.229 0 0 1 13.86 5.58 Z M 40.2 7.76 L 40.2 14.3 L 35.78 14.3 L 35.78 8.32 A 2.406 2.406 0 0 0 35.725 7.788 Q 35.639 7.409 35.42 7.132 A 1.492 1.492 0 0 0 35.35 7.05 A 1.423 1.423 0 0 0 34.439 6.594 A 1.996 1.996 0 0 0 34.2 6.58 A 1.876 1.876 0 0 0 33.71 6.641 A 1.35 1.35 0 0 0 33.04 7.05 Q 32.636 7.503 32.621 8.261 A 2.978 2.978 0 0 0 32.62 8.32 L 32.62 14.3 L 28.18 14.3 L 28.18 3.02 L 32.62 3.02 L 32.62 4.74 Q 33.14 3.94 34.01 3.44 A 3.691 3.691 0 0 1 35.227 3.01 A 4.971 4.971 0 0 1 36.08 2.94 A 4.642 4.642 0 0 1 37.39 3.115 A 3.473 3.473 0 0 1 39.11 4.24 Q 40.104 5.425 40.192 7.374 A 8.561 8.561 0 0 1 40.2 7.76 Z M 75.22 7.56 L 70.52 7.56 A 1.742 1.742 0 0 0 70.359 7.175 Q 70.07 6.68 69.5 6.68 A 0.92 0.92 0 0 0 68.774 7.01 A 1.313 1.313 0 0 0 68.65 7.18 A 1.721 1.721 0 0 0 68.468 7.6 Q 68.348 8.004 68.341 8.58 A 6.012 6.012 0 0 0 68.34 8.66 A 5.016 5.016 0 0 0 68.365 9.173 Q 68.422 9.727 68.612 10.075 A 1.396 1.396 0 0 0 68.65 10.14 A 1.184 1.184 0 0 0 68.89 10.425 A 0.915 0.915 0 0 0 69.5 10.64 Q 70.26 10.64 70.52 9.76 L 75.22 9.76 A 6.519 6.519 0 0 1 74.671 11.474 A 5.129 5.129 0 0 1 73.31 13.2 A 5.426 5.426 0 0 1 70.433 14.393 A 7.15 7.15 0 0 1 69.6 14.44 A 6.892 6.892 0 0 1 67.92 14.243 A 5.715 5.715 0 0 1 66.61 13.74 Q 65.3 13.04 64.57 11.73 A 5.705 5.705 0 0 1 63.926 9.817 A 7.486 7.486 0 0 1 63.84 8.66 A 7.18 7.18 0 0 1 64.001 7.109 A 5.568 5.568 0 0 1 64.57 5.59 Q 65.3 4.28 66.61 3.58 Q 67.92 2.88 69.6 2.88 A 6.465 6.465 0 0 1 71.452 3.135 A 5.265 5.265 0 0 1 73.31 4.12 A 5.276 5.276 0 0 1 74.982 6.613 A 7.102 7.102 0 0 1 75.22 7.56 Z M 58.02 4.56 L 58.02 3.02 L 62.44 3.02 L 62.44 14.3 L 58.02 14.3 L 58.02 12.76 Q 57.6 13.54 56.8 13.99 A 3.439 3.439 0 0 1 55.691 14.376 A 4.638 4.638 0 0 1 54.9 14.44 Q 53.58 14.44 52.52 13.75 A 4.401 4.401 0 0 1 51.206 12.402 A 5.657 5.657 0 0 1 50.85 11.75 Q 50.24 10.44 50.24 8.66 Q 50.24 6.88 50.85 5.57 Q 51.46 4.26 52.52 3.57 Q 53.58 2.88 54.9 2.88 Q 56 2.88 56.8 3.33 Q 57.6 3.78 58.02 4.56 Z M 48.08 10.52 L 49.14 10.52 L 49.14 14.3 L 47.46 14.3 Q 42.82 14.3 42.82 9.68 L 42.82 6.72 L 41.42 6.72 L 41.42 3.02 L 42.82 3.02 L 42.82 0.3 L 47.26 0.3 L 47.26 3.02 L 49.1 3.02 L 49.1 6.72 L 47.26 6.72 L 47.26 9.76 A 1.333 1.333 0 0 0 47.275 9.968 Q 47.292 10.076 47.329 10.162 A 0.527 0.527 0 0 0 47.45 10.34 A 0.552 0.552 0 0 0 47.632 10.452 Q 47.809 10.52 48.08 10.52 Z M 82.58 10.52 L 83.64 10.52 L 83.64 14.3 L 81.96 14.3 Q 77.32 14.3 77.32 9.68 L 77.32 6.72 L 75.92 6.72 L 75.92 3.02 L 77.32 3.02 L 77.32 0.3 L 81.76 0.3 L 81.76 3.02 L 83.6 3.02 L 83.6 6.72 L 81.76 6.72 L 81.76 9.76 A 1.333 1.333 0 0 0 81.775 9.968 Q 81.792 10.076 81.829 10.162 A 0.527 0.527 0 0 0 81.95 10.34 A 0.552 0.552 0 0 0 82.132 10.452 Q 82.309 10.52 82.58 10.52 Z M 18.968 14.206 A 7.1 7.1 0 0 0 20.82 14.44 A 7.755 7.755 0 0 0 21.548 14.407 A 6.346 6.346 0 0 0 23.88 13.74 Q 25.24 13.04 26.01 11.73 A 5.38 5.38 0 0 0 26.599 10.26 A 6.788 6.788 0 0 0 26.78 8.66 A 7.181 7.181 0 0 0 26.705 7.604 A 5.539 5.539 0 0 0 26.01 5.59 Q 25.24 4.28 23.88 3.58 A 6.091 6.091 0 0 0 22.672 3.114 A 7.1 7.1 0 0 0 20.82 2.88 A 7.755 7.755 0 0 0 20.093 2.914 A 6.346 6.346 0 0 0 17.76 3.58 Q 16.4 4.28 15.63 5.59 A 5.38 5.38 0 0 0 15.041 7.061 A 6.788 6.788 0 0 0 14.86 8.66 A 7.181 7.181 0 0 0 14.935 9.716 A 5.539 5.539 0 0 0 15.63 11.73 Q 16.4 13.04 17.76 13.74 A 6.091 6.091 0 0 0 18.968 14.206 Z M 58.02 8.66 Q 58.02 7.76 57.56 7.26 Q 57.1 6.76 56.38 6.76 A 1.689 1.689 0 0 0 55.782 6.863 A 1.501 1.501 0 0 0 55.2 7.26 A 1.643 1.643 0 0 0 54.835 7.927 Q 54.764 8.171 54.746 8.461 A 3.267 3.267 0 0 0 54.74 8.66 Q 54.74 9.56 55.2 10.06 Q 55.66 10.56 56.38 10.56 A 1.689 1.689 0 0 0 56.979 10.458 A 1.501 1.501 0 0 0 57.56 10.06 A 1.643 1.643 0 0 0 57.926 9.394 Q 57.997 9.149 58.014 8.859 A 3.267 3.267 0 0 0 58.02 8.66 Z M 20.82 10.6 A 1.302 1.302 0 0 0 21.793 10.184 A 1.695 1.695 0 0 0 21.86 10.11 Q 22.183 9.733 22.258 9.078 A 3.702 3.702 0 0 0 22.28 8.66 A 3.505 3.505 0 0 0 22.241 8.119 Q 22.152 7.551 21.86 7.21 Q 21.44 6.72 20.82 6.72 A 1.302 1.302 0 0 0 19.847 7.137 A 1.695 1.695 0 0 0 19.78 7.21 Q 19.457 7.587 19.383 8.242 A 3.702 3.702 0 0 0 19.36 8.66 A 3.589 3.589 0 0 0 19.398 9.201 Q 19.485 9.769 19.77 10.11 A 1.349 1.349 0 0 0 20.262 10.489 A 1.369 1.369 0 0 0 20.82 10.6 Z"/></g></svg>