<svg width="36.68" height="19.56" viewBox="0 0 36.68 19.56" xmlns="http://www.w3.org/2000/svg"><g id="svgGroup" stroke-linecap="round" fill-rule="evenodd" font-size="9pt" stroke="#000" stroke-width="0" fill="#274E13" style="stroke:#000;stroke-width:0;fill:#274E13"><path d="M 9.44 3.54 L 4.44 3.54 L 4.44 5.28 L 8.84 5.28 L 8.84 8.62 L 4.44 8.62 L 4.44 10.62 L 9.44 10.62 L 9.44 14.16 L 0 14.16 L 0 0 L 9.44 0 L 9.44 3.54 Z M 23.48 14.16 L 18.52 14.16 L 16.62 11.62 L 15.2 14.16 L 10.32 14.16 L 14.1 8.22 L 10.12 2.88 L 15.08 2.88 L 16.98 5.44 L 18.42 2.88 L 23.3 2.88 L 19.4 8.68 L 23.48 14.16 Z M 28.92 12.62 L 28.92 19.56 L 24.48 19.56 L 24.48 2.88 L 28.92 2.88 L 28.92 4.42 Q 29.34 3.64 30.13 3.19 A 3.346 3.346 0 0 1 31.177 2.814 A 4.565 4.565 0 0 1 32.02 2.74 Q 33.34 2.74 34.4 3.43 A 4.401 4.401 0 0 1 35.714 4.778 A 5.657 5.657 0 0 1 36.07 5.43 Q 36.68 6.74 36.68 8.52 Q 36.68 10.3 36.07 11.61 Q 35.46 12.92 34.4 13.61 Q 33.34 14.3 32.02 14.3 A 4.512 4.512 0 0 1 31.117 14.214 A 3.321 3.321 0 0 1 30.13 13.85 Q 29.34 13.4 28.92 12.62 Z M 32.18 8.52 Q 32.18 7.62 31.72 7.12 Q 31.26 6.62 30.54 6.62 A 1.689 1.689 0 0 0 29.941 6.722 A 1.501 1.501 0 0 0 29.36 7.12 A 1.643 1.643 0 0 0 28.994 7.787 Q 28.924 8.031 28.906 8.321 A 3.267 3.267 0 0 0 28.9 8.52 Q 28.9 9.42 29.36 9.92 Q 29.82 10.42 30.54 10.42 A 1.689 1.689 0 0 0 31.139 10.318 A 1.501 1.501 0 0 0 31.72 9.92 A 1.643 1.643 0 0 0 32.086 9.253 Q 32.156 9.009 32.174 8.719 A 3.267 3.267 0 0 0 32.18 8.52 Z" vector-effect="non-scaling-stroke"/></g></svg>