<svg width="60.26" height="14.3" viewBox="0 0 60.26 14.3" xmlns="http://www.w3.org/2000/svg"><g id="svgGroup" stroke-linecap="round" fill-rule="evenodd" font-size="9pt" stroke="#000" stroke-width="0" fill="#274E13" style="stroke:#000;stroke-width:0;fill:#274E13"><path d="M 47.42 7.62 L 47.42 14.16 L 43 14.16 L 43 8.18 A 1.94 1.94 0 0 0 42.945 7.705 A 1.335 1.335 0 0 0 42.57 7.05 A 1.447 1.447 0 0 0 41.851 6.682 A 2.104 2.104 0 0 0 41.42 6.64 Q 40.68 6.64 40.26 7.05 Q 39.84 7.46 39.84 8.18 L 39.84 14.16 L 35.42 14.16 L 35.42 8.18 A 1.94 1.94 0 0 0 35.365 7.705 A 1.335 1.335 0 0 0 34.99 7.05 A 1.447 1.447 0 0 0 34.271 6.682 A 2.104 2.104 0 0 0 33.84 6.64 Q 33.1 6.64 32.68 7.05 Q 32.26 7.46 32.26 8.18 L 32.26 14.16 L 27.82 14.16 L 27.82 2.88 L 32.26 2.88 L 32.26 4.4 A 3.455 3.455 0 0 1 33.362 3.358 A 4.142 4.142 0 0 1 33.57 3.24 A 3.715 3.715 0 0 1 34.719 2.862 A 4.959 4.959 0 0 1 35.52 2.8 A 4.776 4.776 0 0 1 36.733 2.948 A 3.961 3.961 0 0 1 37.68 3.33 Q 38.62 3.86 39.18 4.82 Q 39.8 3.94 40.76 3.37 Q 41.72 2.8 42.88 2.8 A 5.761 5.761 0 0 1 44.25 2.954 A 3.857 3.857 0 0 1 46.23 4.1 Q 47.387 5.364 47.419 7.499 A 8.144 8.144 0 0 1 47.42 7.62 Z M 8.66 0 L 13.1 0 L 13.1 14.16 L 8.66 14.16 L 8.66 8.64 L 4.44 8.64 L 4.44 14.16 L 0 14.16 L 0 0 L 4.44 0 L 4.44 5.1 L 8.66 5.1 L 8.66 0 Z M 60.2 9.3 L 53.06 9.3 A 2.828 2.828 0 0 0 53.148 9.851 Q 53.382 10.707 54.179 10.757 A 1.615 1.615 0 0 0 54.28 10.76 A 1.219 1.219 0 0 0 54.737 10.678 Q 55.042 10.556 55.236 10.251 A 1.501 1.501 0 0 0 55.32 10.1 L 60.02 10.1 Q 59.78 11.3 59.01 12.25 Q 58.24 13.2 57.07 13.75 A 5.861 5.861 0 0 1 54.857 14.291 A 6.911 6.911 0 0 1 54.5 14.3 A 6.892 6.892 0 0 1 52.819 14.102 A 5.715 5.715 0 0 1 51.51 13.6 Q 50.2 12.9 49.47 11.59 A 5.705 5.705 0 0 1 48.826 9.677 A 7.486 7.486 0 0 1 48.74 8.52 A 7.18 7.18 0 0 1 48.9 6.969 A 5.568 5.568 0 0 1 49.47 5.45 Q 50.2 4.14 51.51 3.44 Q 52.82 2.74 54.5 2.74 A 6.987 6.987 0 0 1 56.181 2.935 A 5.766 5.766 0 0 1 57.49 3.43 Q 58.8 4.12 59.53 5.4 A 5.483 5.483 0 0 1 60.17 7.253 A 7.264 7.264 0 0 1 60.26 8.42 Q 60.26 8.88 60.2 9.3 Z M 18.608 14.066 A 7.1 7.1 0 0 0 20.46 14.3 A 7.755 7.755 0 0 0 21.187 14.267 A 6.346 6.346 0 0 0 23.52 13.6 Q 24.88 12.9 25.65 11.59 A 5.38 5.38 0 0 0 26.239 10.119 A 6.788 6.788 0 0 0 26.42 8.52 A 7.181 7.181 0 0 0 26.345 7.464 A 5.539 5.539 0 0 0 25.65 5.45 Q 24.88 4.14 23.52 3.44 A 6.091 6.091 0 0 0 22.312 2.974 A 7.1 7.1 0 0 0 20.46 2.74 A 7.755 7.755 0 0 0 19.733 2.773 A 6.346 6.346 0 0 0 17.4 3.44 Q 16.04 4.14 15.27 5.45 A 5.38 5.38 0 0 0 14.681 6.921 A 6.788 6.788 0 0 0 14.5 8.52 A 7.181 7.181 0 0 0 14.575 9.576 A 5.539 5.539 0 0 0 15.27 11.59 Q 16.04 12.9 17.4 13.6 A 6.091 6.091 0 0 0 18.608 14.066 Z M 20.46 10.46 A 1.302 1.302 0 0 0 21.433 10.044 A 1.695 1.695 0 0 0 21.5 9.97 Q 21.823 9.593 21.898 8.938 A 3.702 3.702 0 0 0 21.92 8.52 A 3.505 3.505 0 0 0 21.881 7.979 Q 21.792 7.411 21.5 7.07 Q 21.08 6.58 20.46 6.58 A 1.302 1.302 0 0 0 19.487 6.996 A 1.695 1.695 0 0 0 19.42 7.07 Q 19.097 7.447 19.022 8.102 A 3.702 3.702 0 0 0 19 8.52 A 3.589 3.589 0 0 0 19.038 9.061 Q 19.125 9.629 19.41 9.97 A 1.349 1.349 0 0 0 19.902 10.349 A 1.369 1.369 0 0 0 20.46 10.46 Z M 53.12 7.36 L 55.76 7.36 Q 55.76 6.8 55.4 6.51 A 1.293 1.293 0 0 0 54.79 6.243 A 1.76 1.76 0 0 0 54.5 6.22 A 1.804 1.804 0 0 0 53.964 6.293 Q 53.269 6.509 53.12 7.36 Z" vector-effect="non-scaling-stroke"/></g></svg>