<svg width="84.5" height="21.981" viewBox="0 0 84.5 21.981" xmlns="http://www.w3.org/2000/svg"><g id="svgGroup" stroke-linecap="round" fill-rule="evenodd" font-size="9pt" stroke="#000" stroke-width="0" fill="#274E13" style="stroke:#000;stroke-width:0;fill:#274E13"><path d="M 74.08 12.68 L 78.34 12.68 A 1.346 1.346 0 0 0 78.432 13.006 A 0.95 0.95 0 0 0 78.77 13.42 A 1.313 1.313 0 0 0 79.22 13.613 Q 79.396 13.654 79.601 13.659 A 2.36 2.36 0 0 0 79.66 13.66 Q 80 13.66 80.2 13.51 A 0.565 0.565 0 0 0 80.316 13.396 A 0.418 0.418 0 0 0 80.4 13.14 Q 80.4 12.836 80.13 12.672 A 0.927 0.927 0 0 0 79.98 12.6 Q 79.56 12.44 78.56 12.24 A 21.01 21.01 0 0 1 77.739 12.062 Q 77.056 11.899 76.55 11.72 A 3.206 3.206 0 0 1 75.282 10.884 A 3.822 3.822 0 0 1 75.17 10.76 A 2.267 2.267 0 0 1 74.71 9.891 Q 74.58 9.443 74.58 8.88 Q 74.58 7.84 75.13 6.99 A 3.416 3.416 0 0 1 76.13 5.996 A 4.532 4.532 0 0 1 76.76 5.65 A 5.179 5.179 0 0 1 77.935 5.286 Q 78.474 5.184 79.091 5.165 A 9.276 9.276 0 0 1 79.38 5.16 A 7.492 7.492 0 0 1 80.8 5.286 Q 81.629 5.447 82.278 5.809 A 3.99 3.99 0 0 1 82.95 6.28 A 4.566 4.566 0 0 1 84.473 9.033 A 5.807 5.807 0 0 1 84.5 9.2 L 80.56 9.2 A 1.406 1.406 0 0 0 80.436 8.849 A 1.083 1.083 0 0 0 80.14 8.49 Q 79.82 8.24 79.28 8.24 A 1.427 1.427 0 0 0 79.085 8.252 Q 78.988 8.266 78.909 8.294 A 0.584 0.584 0 0 0 78.76 8.37 A 0.422 0.422 0 0 0 78.588 8.656 A 0.645 0.645 0 0 0 78.58 8.76 A 0.47 0.47 0 0 0 78.777 9.146 Q 78.851 9.203 78.952 9.249 A 1.223 1.223 0 0 0 79 9.27 Q 79.32 9.4 79.932 9.535 A 16.796 16.796 0 0 0 80.34 9.62 A 19.767 19.767 0 0 1 81.202 9.809 Q 81.875 9.973 82.4 10.16 A 3.354 3.354 0 0 1 83.742 11.057 A 4.006 4.006 0 0 1 83.86 11.19 A 2.452 2.452 0 0 1 84.344 12.121 Q 84.48 12.6 84.48 13.2 Q 84.48 14.2 83.9 15 A 3.472 3.472 0 0 1 82.976 15.867 A 4.698 4.698 0 0 1 82.23 16.26 A 5.656 5.656 0 0 1 80.927 16.626 A 7.835 7.835 0 0 1 79.68 16.72 A 8.38 8.38 0 0 1 78.217 16.598 A 6.341 6.341 0 0 1 76.85 16.2 Q 75.62 15.68 74.9 14.76 Q 74.18 13.84 74.08 12.68 Z M 64.54 9.84 L 59.84 9.84 A 1.742 1.742 0 0 0 59.679 9.455 Q 59.39 8.96 58.82 8.96 A 0.92 0.92 0 0 0 58.094 9.29 A 1.313 1.313 0 0 0 57.97 9.46 A 1.721 1.721 0 0 0 57.788 9.88 Q 57.668 10.284 57.661 10.86 A 6.012 6.012 0 0 0 57.66 10.94 A 5.016 5.016 0 0 0 57.685 11.453 Q 57.742 12.007 57.932 12.355 A 1.396 1.396 0 0 0 57.97 12.42 A 1.184 1.184 0 0 0 58.21 12.705 A 0.915 0.915 0 0 0 58.82 12.92 Q 59.58 12.92 59.84 12.04 L 64.54 12.04 A 6.519 6.519 0 0 1 63.991 13.753 A 5.129 5.129 0 0 1 62.63 15.48 A 5.426 5.426 0 0 1 59.753 16.673 A 7.15 7.15 0 0 1 58.92 16.72 A 6.892 6.892 0 0 1 57.239 16.523 A 5.715 5.715 0 0 1 55.93 16.02 Q 54.62 15.32 53.89 14.01 A 5.705 5.705 0 0 1 53.246 12.097 A 7.486 7.486 0 0 1 53.16 10.94 A 7.18 7.18 0 0 1 53.32 9.389 A 5.568 5.568 0 0 1 53.89 7.87 Q 54.62 6.56 55.93 5.86 Q 57.24 5.16 58.92 5.16 A 6.465 6.465 0 0 1 60.772 5.415 A 5.265 5.265 0 0 1 62.63 6.4 A 5.276 5.276 0 0 1 64.302 8.893 A 7.102 7.102 0 0 1 64.54 9.84 Z M 52.3 11.72 L 45.16 11.72 A 2.828 2.828 0 0 0 45.248 12.271 Q 45.482 13.127 46.279 13.177 A 1.615 1.615 0 0 0 46.38 13.18 A 1.219 1.219 0 0 0 46.837 13.099 Q 47.142 12.976 47.336 12.671 A 1.501 1.501 0 0 0 47.42 12.52 L 52.12 12.52 Q 51.88 13.72 51.11 14.67 Q 50.34 15.62 49.17 16.17 A 5.861 5.861 0 0 1 46.957 16.711 A 6.911 6.911 0 0 1 46.6 16.72 A 6.892 6.892 0 0 1 44.919 16.523 A 5.715 5.715 0 0 1 43.61 16.02 Q 42.3 15.32 41.57 14.01 A 5.705 5.705 0 0 1 40.926 12.097 A 7.486 7.486 0 0 1 40.84 10.94 A 7.18 7.18 0 0 1 41 9.389 A 5.568 5.568 0 0 1 41.57 7.87 Q 42.3 6.56 43.61 5.86 Q 44.92 5.16 46.6 5.16 A 6.987 6.987 0 0 1 48.281 5.355 A 5.766 5.766 0 0 1 49.59 5.85 Q 50.9 6.54 51.63 7.82 A 5.483 5.483 0 0 1 52.27 9.674 A 7.264 7.264 0 0 1 52.36 10.84 Q 52.36 11.3 52.3 11.72 Z M 6.2 12.08 L 4.44 12.08 L 4.44 16.58 L 0 16.58 L 0 2.42 L 6.2 2.42 A 8.199 8.199 0 0 1 7.759 2.559 Q 8.645 2.731 9.336 3.115 A 4.195 4.195 0 0 1 10.19 3.74 A 4.386 4.386 0 0 1 11.511 6.336 A 6.229 6.229 0 0 1 11.58 7.28 A 4.992 4.992 0 0 1 11.287 9.004 A 4.647 4.647 0 0 1 10.96 9.71 A 4.322 4.322 0 0 1 9.459 11.251 A 5.312 5.312 0 0 1 9.13 11.44 Q 7.92 12.08 6.2 12.08 Z M 71.9 12.8 L 72.96 12.8 L 72.96 16.58 L 71.28 16.58 Q 66.64 16.58 66.64 11.96 L 66.64 9 L 65.24 9 L 65.24 5.3 L 66.64 5.3 L 66.64 2.58 L 71.08 2.58 L 71.08 5.3 L 72.92 5.3 L 72.92 9 L 71.08 9 L 71.08 12.04 A 1.333 1.333 0 0 0 71.095 12.248 Q 71.112 12.356 71.149 12.442 A 0.527 0.527 0 0 0 71.27 12.62 A 0.552 0.552 0 0 0 71.452 12.732 Q 71.628 12.8 71.9 12.8 Z M 39.48 5.3 L 39.48 17.36 A 6.624 6.624 0 0 1 39.25 19.188 Q 38.66 21.239 36.558 21.783 A 6.864 6.864 0 0 1 34.84 21.98 L 33.36 21.98 L 33.36 18.2 L 34.22 18.2 Q 34.63 18.2 34.823 18.044 A 0.464 0.464 0 0 0 34.85 18.02 Q 34.994 17.883 35.029 17.62 A 1.379 1.379 0 0 0 35.04 17.44 L 35.04 5.3 L 39.48 5.3 Z M 21.12 5.22 L 21.12 9.96 L 19.86 9.96 A 5.736 5.736 0 0 0 19.204 9.995 Q 18.434 10.084 18.01 10.4 Q 17.42 10.84 17.42 11.96 L 17.42 16.58 L 12.98 16.58 L 12.98 5.3 L 17.42 5.3 L 17.42 7.38 Q 18.1 6.4 19.08 5.81 A 4.097 4.097 0 0 1 20.336 5.303 A 3.721 3.721 0 0 1 21.12 5.22 Z M 25.828 16.486 A 7.1 7.1 0 0 0 27.68 16.72 A 7.755 7.755 0 0 0 28.407 16.687 A 6.346 6.346 0 0 0 30.74 16.02 Q 32.1 15.32 32.87 14.01 A 5.38 5.38 0 0 0 33.459 12.54 A 6.788 6.788 0 0 0 33.64 10.94 A 7.181 7.181 0 0 0 33.565 9.884 A 5.539 5.539 0 0 0 32.87 7.87 Q 32.1 6.56 30.74 5.86 A 6.091 6.091 0 0 0 29.532 5.394 A 7.1 7.1 0 0 0 27.68 5.16 A 7.755 7.755 0 0 0 26.953 5.194 A 6.346 6.346 0 0 0 24.62 5.86 Q 23.26 6.56 22.49 7.87 A 5.38 5.38 0 0 0 21.901 9.341 A 6.788 6.788 0 0 0 21.72 10.94 A 7.181 7.181 0 0 0 21.795 11.996 A 5.539 5.539 0 0 0 22.49 14.01 Q 23.26 15.32 24.62 16.02 A 6.091 6.091 0 0 0 25.828 16.486 Z M 36.45 4.317 A 3.526 3.526 0 0 0 37.24 4.4 A 3.47 3.47 0 0 0 37.972 4.327 A 2.401 2.401 0 0 0 39.08 3.78 A 2.078 2.078 0 0 0 39.577 3.141 A 2.058 2.058 0 0 0 39.78 2.22 A 2.551 2.551 0 0 0 39.777 2.101 A 2.034 2.034 0 0 0 39.08 0.63 A 2.371 2.371 0 0 0 38.033 0.089 A 3.363 3.363 0 0 0 37.24 0 A 3.486 3.486 0 0 0 36.466 0.081 A 2.38 2.38 0 0 0 35.38 0.63 A 2.089 2.089 0 0 0 34.861 1.33 A 2.15 2.15 0 0 0 34.68 2.22 A 2.447 2.447 0 0 0 34.683 2.337 A 1.985 1.985 0 0 0 35.38 3.78 A 2.39 2.39 0 0 0 36.45 4.317 Z M 27.68 12.88 A 1.302 1.302 0 0 0 28.653 12.464 A 1.695 1.695 0 0 0 28.72 12.39 Q 29.043 12.013 29.118 11.358 A 3.702 3.702 0 0 0 29.14 10.94 A 3.505 3.505 0 0 0 29.101 10.399 Q 29.012 9.831 28.72 9.49 Q 28.3 9 27.68 9 A 1.302 1.302 0 0 0 26.707 9.417 A 1.695 1.695 0 0 0 26.64 9.49 Q 26.317 9.867 26.242 10.522 A 3.702 3.702 0 0 0 26.22 10.94 A 3.589 3.589 0 0 0 26.258 11.481 Q 26.345 12.049 26.63 12.39 A 1.349 1.349 0 0 0 27.122 12.769 A 1.369 1.369 0 0 0 27.68 12.88 Z M 5.7 5.98 L 4.44 5.98 L 4.44 8.58 L 5.7 8.58 Q 6.874 8.58 7.049 7.639 A 1.963 1.963 0 0 0 7.08 7.28 Q 7.08 6.243 6.202 6.033 A 2.165 2.165 0 0 0 5.7 5.98 Z M 45.22 9.78 L 47.86 9.78 Q 47.86 9.22 47.5 8.93 A 1.293 1.293 0 0 0 46.89 8.663 A 1.76 1.76 0 0 0 46.6 8.64 A 1.804 1.804 0 0 0 46.064 8.714 Q 45.369 8.93 45.22 9.78 Z" vector-effect="non-scaling-stroke"/></g></svg>