<svg width="96.76" height="14.94" viewBox="0 0 96.76 14.94" xmlns="http://www.w3.org/2000/svg"><g id="svgGroup" stroke-linecap="round" fill-rule="evenodd" font-size="9pt" stroke="#000" stroke-width="0" fill="#274E13" style="stroke:#000;stroke-width:0;fill:#274E13"><path d="M 96.76 8.26 L 96.76 14.8 L 92.34 14.8 L 92.34 8.82 A 2.406 2.406 0 0 0 92.284 8.288 Q 92.199 7.909 91.98 7.632 A 1.492 1.492 0 0 0 91.91 7.55 A 1.423 1.423 0 0 0 90.999 7.094 A 1.996 1.996 0 0 0 90.76 7.08 A 1.876 1.876 0 0 0 90.269 7.141 A 1.35 1.35 0 0 0 89.6 7.55 Q 89.196 8.002 89.181 8.761 A 2.978 2.978 0 0 0 89.18 8.82 L 89.18 14.8 L 84.74 14.8 L 84.74 0 L 89.18 0 L 89.18 5.24 Q 89.7 4.44 90.57 3.94 A 3.691 3.691 0 0 1 91.786 3.51 A 4.971 4.971 0 0 1 92.64 3.44 A 4.642 4.642 0 0 1 93.95 3.615 A 3.473 3.473 0 0 1 95.67 4.74 Q 96.664 5.925 96.751 7.874 A 8.561 8.561 0 0 1 96.76 8.26 Z M 12 14.8 L 7.12 14.8 L 4.46 9.72 L 4.44 9.72 L 4.44 14.8 L 0 14.8 L 0 0.64 L 6.6 0.64 A 8.107 8.107 0 0 1 7.962 0.749 Q 8.835 0.897 9.54 1.25 A 4.706 4.706 0 0 1 10.622 1.983 A 3.923 3.923 0 0 1 11.37 2.91 A 4.542 4.542 0 0 1 11.97 4.944 A 5.498 5.498 0 0 1 11.98 5.28 Q 11.98 6.7 11.19 7.8 Q 10.4 8.9 8.92 9.38 L 12 14.8 Z M 25.14 10.9 L 29.4 10.9 A 1.346 1.346 0 0 0 29.492 11.226 A 0.95 0.95 0 0 0 29.83 11.64 A 1.313 1.313 0 0 0 30.28 11.833 Q 30.456 11.874 30.661 11.879 A 2.36 2.36 0 0 0 30.72 11.88 Q 31.06 11.88 31.26 11.73 A 0.565 0.565 0 0 0 31.376 11.616 A 0.418 0.418 0 0 0 31.46 11.36 Q 31.46 11.055 31.19 10.892 A 0.927 0.927 0 0 0 31.04 10.82 Q 30.62 10.66 29.62 10.46 A 21.01 21.01 0 0 1 28.799 10.282 Q 28.116 10.119 27.61 9.94 A 3.206 3.206 0 0 1 26.342 9.104 A 3.822 3.822 0 0 1 26.23 8.98 A 2.267 2.267 0 0 1 25.77 8.111 Q 25.64 7.663 25.64 7.1 Q 25.64 6.06 26.19 5.21 A 3.416 3.416 0 0 1 27.19 4.216 A 4.532 4.532 0 0 1 27.82 3.87 A 5.179 5.179 0 0 1 28.995 3.506 Q 29.534 3.404 30.151 3.384 A 9.276 9.276 0 0 1 30.44 3.38 A 7.492 7.492 0 0 1 31.86 3.506 Q 32.689 3.666 33.338 4.029 A 3.99 3.99 0 0 1 34.01 4.5 A 4.566 4.566 0 0 1 35.533 7.253 A 5.807 5.807 0 0 1 35.56 7.42 L 31.62 7.42 A 1.406 1.406 0 0 0 31.496 7.069 A 1.083 1.083 0 0 0 31.2 6.71 Q 30.88 6.46 30.34 6.46 A 1.427 1.427 0 0 0 30.145 6.472 Q 30.048 6.486 29.969 6.514 A 0.584 0.584 0 0 0 29.82 6.59 A 0.422 0.422 0 0 0 29.648 6.876 A 0.645 0.645 0 0 0 29.64 6.98 A 0.47 0.47 0 0 0 29.837 7.366 Q 29.911 7.423 30.012 7.469 A 1.223 1.223 0 0 0 30.06 7.49 Q 30.38 7.62 30.992 7.755 A 16.796 16.796 0 0 0 31.4 7.84 A 19.767 19.767 0 0 1 32.262 8.028 Q 32.935 8.193 33.46 8.38 A 3.354 3.354 0 0 1 34.802 9.277 A 4.006 4.006 0 0 1 34.92 9.41 A 2.452 2.452 0 0 1 35.404 10.341 Q 35.54 10.82 35.54 11.42 Q 35.54 12.42 34.96 13.22 A 3.472 3.472 0 0 1 34.036 14.087 A 4.698 4.698 0 0 1 33.29 14.48 A 5.656 5.656 0 0 1 31.987 14.846 A 7.835 7.835 0 0 1 30.74 14.94 A 8.38 8.38 0 0 1 29.277 14.818 A 6.341 6.341 0 0 1 27.91 14.42 Q 26.68 13.9 25.96 12.98 Q 25.24 12.06 25.14 10.9 Z M 83.34 8.06 L 78.64 8.06 A 1.742 1.742 0 0 0 78.479 7.675 Q 78.19 7.18 77.62 7.18 A 0.92 0.92 0 0 0 76.894 7.51 A 1.313 1.313 0 0 0 76.77 7.68 A 1.721 1.721 0 0 0 76.588 8.1 Q 76.468 8.503 76.461 9.08 A 6.012 6.012 0 0 0 76.46 9.16 A 5.016 5.016 0 0 0 76.485 9.673 Q 76.542 10.227 76.732 10.574 A 1.396 1.396 0 0 0 76.77 10.64 A 1.184 1.184 0 0 0 77.01 10.925 A 0.915 0.915 0 0 0 77.62 11.14 Q 78.38 11.14 78.64 10.26 L 83.34 10.26 A 6.519 6.519 0 0 1 82.791 11.973 A 5.129 5.129 0 0 1 81.43 13.7 A 5.426 5.426 0 0 1 78.553 14.893 A 7.15 7.15 0 0 1 77.72 14.94 A 6.892 6.892 0 0 1 76.039 14.742 A 5.715 5.715 0 0 1 74.73 14.24 Q 73.42 13.54 72.69 12.23 A 5.705 5.705 0 0 1 72.046 10.317 A 7.486 7.486 0 0 1 71.96 9.16 A 7.18 7.18 0 0 1 72.12 7.609 A 5.568 5.568 0 0 1 72.69 6.09 Q 73.42 4.78 74.73 4.08 Q 76.04 3.38 77.72 3.38 A 6.465 6.465 0 0 1 79.572 3.635 A 5.265 5.265 0 0 1 81.43 4.62 A 5.276 5.276 0 0 1 83.102 7.112 A 7.102 7.102 0 0 1 83.34 8.06 Z M 24.26 9.94 L 17.12 9.94 A 2.828 2.828 0 0 0 17.208 10.491 Q 17.442 11.347 18.239 11.397 A 1.615 1.615 0 0 0 18.34 11.4 A 1.219 1.219 0 0 0 18.797 11.318 Q 19.102 11.196 19.296 10.891 A 1.501 1.501 0 0 0 19.38 10.74 L 24.08 10.74 Q 23.84 11.94 23.07 12.89 Q 22.3 13.84 21.13 14.39 A 5.861 5.861 0 0 1 18.917 14.931 A 6.911 6.911 0 0 1 18.56 14.94 A 6.892 6.892 0 0 1 16.879 14.742 A 5.715 5.715 0 0 1 15.57 14.24 Q 14.26 13.54 13.53 12.23 A 5.705 5.705 0 0 1 12.886 10.317 A 7.486 7.486 0 0 1 12.8 9.16 A 7.18 7.18 0 0 1 12.96 7.609 A 5.568 5.568 0 0 1 13.53 6.09 Q 14.26 4.78 15.57 4.08 Q 16.88 3.38 18.56 3.38 A 6.987 6.987 0 0 1 20.241 3.575 A 5.766 5.766 0 0 1 21.55 4.07 Q 22.86 4.76 23.59 6.04 A 5.483 5.483 0 0 1 24.23 7.893 A 7.264 7.264 0 0 1 24.32 9.06 Q 24.32 9.52 24.26 9.94 Z M 48.16 9.94 L 41.02 9.94 A 2.828 2.828 0 0 0 41.108 10.491 Q 41.342 11.347 42.139 11.397 A 1.615 1.615 0 0 0 42.24 11.4 A 1.219 1.219 0 0 0 42.697 11.318 Q 43.002 11.196 43.196 10.891 A 1.501 1.501 0 0 0 43.28 10.74 L 47.98 10.74 Q 47.74 11.94 46.97 12.89 Q 46.2 13.84 45.03 14.39 A 5.861 5.861 0 0 1 42.817 14.931 A 6.911 6.911 0 0 1 42.46 14.94 A 6.892 6.892 0 0 1 40.779 14.742 A 5.715 5.715 0 0 1 39.47 14.24 Q 38.16 13.54 37.43 12.23 A 5.705 5.705 0 0 1 36.786 10.317 A 7.486 7.486 0 0 1 36.7 9.16 A 7.18 7.18 0 0 1 36.86 7.609 A 5.568 5.568 0 0 1 37.43 6.09 Q 38.16 4.78 39.47 4.08 Q 40.78 3.38 42.46 3.38 A 6.987 6.987 0 0 1 44.141 3.575 A 5.766 5.766 0 0 1 45.45 4.07 Q 46.76 4.76 47.49 6.04 A 5.483 5.483 0 0 1 48.13 7.893 A 7.264 7.264 0 0 1 48.22 9.06 Q 48.22 9.52 48.16 9.94 Z M 56.8 5.06 L 56.8 3.52 L 61.22 3.52 L 61.22 14.8 L 56.8 14.8 L 56.8 13.26 Q 56.38 14.04 55.58 14.49 A 3.439 3.439 0 0 1 54.471 14.875 A 4.638 4.638 0 0 1 53.68 14.94 Q 52.36 14.94 51.3 14.25 A 4.401 4.401 0 0 1 49.986 12.902 A 5.657 5.657 0 0 1 49.63 12.25 Q 49.02 10.94 49.02 9.16 Q 49.02 7.38 49.63 6.07 Q 50.24 4.76 51.3 4.07 Q 52.36 3.38 53.68 3.38 Q 54.78 3.38 55.58 3.83 Q 56.38 4.28 56.8 5.06 Z M 71.36 3.44 L 71.36 8.18 L 70.1 8.18 A 5.736 5.736 0 0 0 69.444 8.215 Q 68.674 8.304 68.25 8.62 Q 67.66 9.06 67.66 10.18 L 67.66 14.8 L 63.22 14.8 L 63.22 3.52 L 67.66 3.52 L 67.66 5.6 Q 68.34 4.62 69.32 4.03 A 4.097 4.097 0 0 1 70.576 3.523 A 3.721 3.721 0 0 1 71.36 3.44 Z M 56.8 9.16 Q 56.8 8.26 56.34 7.76 Q 55.88 7.26 55.16 7.26 A 1.689 1.689 0 0 0 54.561 7.362 A 1.501 1.501 0 0 0 53.98 7.76 A 1.643 1.643 0 0 0 53.614 8.427 Q 53.544 8.671 53.526 8.961 A 3.267 3.267 0 0 0 53.52 9.16 Q 53.52 10.06 53.98 10.56 Q 54.44 11.06 55.16 11.06 A 1.689 1.689 0 0 0 55.759 10.958 A 1.501 1.501 0 0 0 56.34 10.56 A 1.643 1.643 0 0 0 56.706 9.893 Q 56.776 9.649 56.794 9.359 A 3.267 3.267 0 0 0 56.8 9.16 Z M 4.44 4.36 L 4.44 6.76 L 6.2 6.76 A 2.259 2.259 0 0 0 6.552 6.734 Q 6.737 6.705 6.886 6.642 A 0.965 0.965 0 0 0 7.16 6.47 Q 7.48 6.18 7.48 5.56 Q 7.48 5 7.15 4.68 A 1.064 1.064 0 0 0 6.71 4.428 Q 6.543 4.377 6.341 4.364 A 2.214 2.214 0 0 0 6.2 4.36 L 4.44 4.36 Z M 17.18 8 L 19.82 8 Q 19.82 7.44 19.46 7.15 A 1.293 1.293 0 0 0 18.85 6.883 A 1.76 1.76 0 0 0 18.56 6.86 A 1.804 1.804 0 0 0 18.024 6.933 Q 17.329 7.149 17.18 8 Z M 41.08 8 L 43.72 8 Q 43.72 7.44 43.36 7.15 A 1.293 1.293 0 0 0 42.75 6.883 A 1.76 1.76 0 0 0 42.46 6.86 A 1.804 1.804 0 0 0 41.924 6.933 Q 41.229 7.149 41.08 8 Z" vector-effect="non-scaling-stroke"/></g></svg>