<svg width="85.701" height="104.8" viewBox="0 0 85.701 104.8" xmlns="http://www.w3.org/2000/svg"><g id="svgGroup" stroke-linecap="round" font-size="9pt" fill="#274E13"><path d="M 33.1 34.5 L 20.7 34.5 L 20.7 61.3 A 9.182 9.182 0 0 0 20.807 62.753 Q 20.928 63.51 21.188 64.107 A 3.649 3.649 0 0 0 22.05 65.35 Q 23.311 66.518 26.186 66.595 A 15.469 15.469 0 0 0 26.6 66.6 L 33.1 66.6 L 33.1 78.4 L 24.3 78.4 A 26.327 26.327 0 0 1 17.403 77.577 Q 9.512 75.43 7.385 67.681 A 24.517 24.517 0 0 1 6.6 61.2 L 6.6 34.5 L 0 34.5 L 0 23 L 6.6 23 L 6.6 9.3 L 20.7 9.3 L 20.7 23 L 33.1 23 L 33.1 34.5 Z" id="0"/><path d="M 57.2 23 L 57.2 87.5 A 29.344 29.344 0 0 1 56.84 92.268 Q 55.92 97.84 52.65 100.75 Q 48.1 104.8 39.6 104.8 L 33.4 104.8 L 33.4 92.9 L 37.4 92.9 Q 40.6 92.9 41.9 91.65 Q 42.869 90.719 43.116 88.927 A 9.742 9.742 0 0 0 43.2 87.6 L 43.2 23 L 57.2 23 Z M 47.334 15.982 A 10.067 10.067 0 0 0 50.3 16.4 A 10.931 10.931 0 0 0 51.205 16.364 A 8.148 8.148 0 0 0 56.4 14.05 Q 58.8 11.7 58.8 8.2 A 10.092 10.092 0 0 0 58.799 8.037 A 7.829 7.829 0 0 0 56.4 2.35 A 7.934 7.934 0 0 0 53.287 0.45 A 9.532 9.532 0 0 0 50.3 0 Q 46.5 0 44.05 2.35 Q 41.6 4.7 41.6 8.2 A 9.85 9.85 0 0 0 41.602 8.418 A 7.744 7.744 0 0 0 44.05 14.05 A 8.127 8.127 0 0 0 47.334 15.982 Z" id="1"/><path d="M 74.234 78.682 A 10.067 10.067 0 0 0 77.2 79.1 A 10.931 10.931 0 0 0 78.105 79.064 A 8.148 8.148 0 0 0 83.3 76.75 Q 85.7 74.4 85.7 70.9 A 10.092 10.092 0 0 0 85.699 70.737 A 7.829 7.829 0 0 0 83.3 65.05 A 7.934 7.934 0 0 0 80.187 63.15 A 9.532 9.532 0 0 0 77.2 62.7 Q 73.4 62.7 70.95 65.05 Q 68.5 67.4 68.5 70.9 A 9.85 9.85 0 0 0 68.502 71.118 A 7.744 7.744 0 0 0 70.95 76.75 A 8.127 8.127 0 0 0 74.234 78.682 Z" id="2" fill="goldenrod"/></g></svg>