<svg width="56.98" height="14.94" viewBox="0 0 56.98 14.94" xmlns="http://www.w3.org/2000/svg"><g id="svgGroup" stroke-linecap="round" fill-rule="evenodd" font-size="9pt" stroke="#000" stroke-width="0" fill="#274E13" style="stroke:#000;stroke-width:0;fill:#274E13"><path d="M 16.02 0.64 L 20.8 0.64 L 17.56 14.8 L 12.04 14.8 L 10.4 6.76 L 8.76 14.8 L 3.24 14.8 L 0 0.64 L 4.78 0.64 L 6.06 9.56 L 7.98 0.64 L 12.82 0.64 L 14.74 9.56 L 16.02 0.64 Z M 56.98 14.8 L 51.68 14.8 L 48.9 10.3 L 48.9 14.8 L 44.46 14.8 L 44.46 0 L 48.9 0 L 48.9 7.74 L 51.72 3.52 L 56.88 3.52 L 52.66 9.2 L 56.98 14.8 Z M 43.26 3.44 L 43.26 8.18 L 42 8.18 A 5.736 5.736 0 0 0 41.344 8.215 Q 40.574 8.304 40.15 8.62 Q 39.56 9.06 39.56 10.18 L 39.56 14.8 L 35.12 14.8 L 35.12 3.52 L 39.56 3.52 L 39.56 5.6 Q 40.24 4.62 41.22 4.03 A 4.097 4.097 0 0 1 42.476 3.523 A 3.721 3.721 0 0 1 43.26 3.44 Z M 25.908 14.706 A 7.1 7.1 0 0 0 27.76 14.94 A 7.755 7.755 0 0 0 28.487 14.907 A 6.346 6.346 0 0 0 30.82 14.24 Q 32.18 13.54 32.95 12.23 A 5.38 5.38 0 0 0 33.539 10.759 A 6.788 6.788 0 0 0 33.72 9.16 A 7.181 7.181 0 0 0 33.645 8.104 A 5.539 5.539 0 0 0 32.95 6.09 Q 32.18 4.78 30.82 4.08 A 6.091 6.091 0 0 0 29.612 3.614 A 7.1 7.1 0 0 0 27.76 3.38 A 7.755 7.755 0 0 0 27.033 3.413 A 6.346 6.346 0 0 0 24.7 4.08 Q 23.34 4.78 22.57 6.09 A 5.38 5.38 0 0 0 21.981 7.561 A 6.788 6.788 0 0 0 21.8 9.16 A 7.181 7.181 0 0 0 21.875 10.216 A 5.539 5.539 0 0 0 22.57 12.23 Q 23.34 13.54 24.7 14.24 A 6.091 6.091 0 0 0 25.908 14.706 Z M 27.76 11.1 A 1.302 1.302 0 0 0 28.733 10.684 A 1.695 1.695 0 0 0 28.8 10.61 Q 29.123 10.233 29.198 9.578 A 3.702 3.702 0 0 0 29.22 9.16 A 3.505 3.505 0 0 0 29.181 8.619 Q 29.092 8.051 28.8 7.71 Q 28.38 7.22 27.76 7.22 A 1.302 1.302 0 0 0 26.787 7.636 A 1.695 1.695 0 0 0 26.72 7.71 Q 26.397 8.087 26.322 8.742 A 3.702 3.702 0 0 0 26.3 9.16 A 3.589 3.589 0 0 0 26.338 9.701 Q 26.425 10.269 26.71 10.61 A 1.349 1.349 0 0 0 27.202 10.989 A 1.369 1.369 0 0 0 27.76 11.1 Z"/></g></svg>